# xmcd
#
# Track frame offsets:
#  182
#  18405
#  35682
#  52560
#  75107
#  94615
#  114620
#  133812
#  150537
#  166470
#
# Disc length: 2601 seconds
#
# Revision: 0
# Processed by: cddbd v1.5.1PL2 Copyright (c) Steve Scherf et al.
# Submitted via: Collectorz.com_Music_Collector 6.9
#
DISCID=6b0a270a
DTITLE=Bobby McClure - Younger Man Blues
DYEAR=1994
DGENRE=Blues - Soul-Blues
TTITLE0=Today You Started Leaving Him ( And Loving Me )
TTITLE1=Cherry Pie
TTITLE2=When The Flavor's Gone
TTITLE3=I Can't Get Enough
TTITLE4=Do Do Dom Doop ( Please Come Back )
TTITLE5=I Need A Job
TTITLE6=lease Don't Put Me Out Of The Band
TTITLE7=I Write Another Love Song
TTITLE8=I Brought It Back
TTITLE9=Younger Man Blues
EXTD=
EXTT0=
EXTT1=
EXTT2=
EXTT3=
EXTT4=
EXTT5=
EXTT6=
EXTT7=
EXTT8=
EXTT9=
PLAYORDER=
